<?xml version="1.0" standalone="no"?>
<!DOCTYPE svg PUBLIC "-//W3C//DTD SVG 20010904//EN"
 "http://www.w3.org/TR/2001/REC-SVG-20010904/DTD/svg10.dtd">
<svg version="1.0" xmlns="http://www.w3.org/2000/svg"
 width="148.000000pt" height="118.000000pt" viewBox="0 0 148.000000 118.000000"
 preserveAspectRatio="xMidYMid meet">

<g transform="translate(0.000000,118.000000) scale(0.100000,-0.100000)"
fill="#000000" stroke="none">
<path d="M450 615 l0 -235 45 0 44 0 3 88 c3 76 5 87 21 84 10 -2 17 3 17 12
0 8 8 17 18 19 16 4 16 5 0 6 -33 2 -58 38 -59 84 -3 102 -1 107 33 114 27 5
29 7 13 14 -18 7 -17 8 5 8 24 1 24 2 -8 21 -21 13 -50 20 -82 20 l-50 0 0
-235z"/>
<path d="M893 684 c-16 -16 -21 -23 -11 -15 17 13 18 13 12 -2 -3 -10 -1 -17
6 -17 6 0 8 -5 4 -11 -4 -8 -9 -7 -15 2 -5 8 -9 9 -9 4 0 -6 6 -17 13 -24 8
-10 9 -12 0 -7 -7 4 -17 -3 -24 -16 -12 -22 -11 -22 6 -8 17 14 18 14 6 -9 -8
-15 -9 -21 -2 -17 6 4 11 3 11 -2 0 -12 56 -39 108 -52 24 -6 46 -18 49 -26
16 -44 -83 -63 -116 -22 -18 22 -41 18 -41 -8 0 -8 -7 -14 -16 -14 -8 0 -12
-5 -9 -10 4 -6 10 -8 14 -6 4 3 18 -6 29 -19 19 -22 30 -25 84 -25 74 0 118
22 138 69 10 25 10 37 -1 62 -14 35 -49 53 -122 64 -54 8 -79 27 -70 53 15 40
63 43 99 7 17 -17 36 -25 60 -25 32 0 35 2 29 23 -4 12 -18 33 -31 47 -20 21
-35 25 -98 28 -70 4 -75 3 -103 -24z"/>
<path d="M865 460 c-3 -5 -1 -10 4 -10 6 0 11 5 11 10 0 6 -2 10 -4 10 -3 0
-8 -4 -11 -10z"/>
</g>
</svg>
